#!OML:ASF H:\IndianDance\Patient Classification 1\Patient 1\Session 1\dancer.ASF
:FULLY-SPECIFIED
:DEGREES
3006
root 3.64826 15.1362 -10.3808 -175.038 40.7931 184.737
lowerback 6.29577 3.05143 2.47907
upperback -5.49791 4.87957 3.24382
thorax -9.46435 2.43322 1.34487
lowerneck -7.00946 -15.5871 -11.7555
upperneck 11.7794 -21.8192 16.1078
head 7.89368 -9.82136 4.64178
rclavicle -3.24019e-014 -2.78299e-014
rhumerus 10.4583 8.27061 -45.3628
rradius 30.2827
rwrist -40.1277
rhand -9.47908 -7.04315
rfingers 7.12502
rthumb 16.4852 -36.3628
lclavicle -3.24019e-014 -2.78299e-014
lhumerus -10.5737 -18.3213 0.0757146
lradius 50.5491
lwrist 7.1704
lhand 8.40007 13.7843
lfingers 7.12502
lthumb 33.6073 40.6544
rfemur -31.4655 -10.4849 20.5641
rtibia 46.7142
rfoot -9.4471 1.71424
rtoes -3.00025
lfemur -30.6078 19.0854 -8.33774
ltibia 85.1661
lfoot -10.7704 -9.76295
ltoes -3.1511
3007
root 3.78332 15.091 -10.347 -174.782 40.8183 185.068
lowerback 6.15288 3.15271 2.49882
upperback -5.59844 5.01099 3.14705
thorax -9.48097 2.4933 1.21842
lowerneck -6.85641 -15.4671 -11.5264
upperneck 11.5102 -21.6366 16.0038
head 7.71331 -9.75614 4.62569
rclavicle 5.45664e-014 3.4191e-014
rhumerus 10.6143 8.29741 -45.0449
rradius 30.6959
rwrist -41.0998
rhand -9.39251 -7.90567
rfingers 7.12502
rthumb 16.5686 -37.2184
lclavicle 5.45664e-014 3.4191e-014
lhumerus -10.6805 -18.0002 -0.224418
lradius 50.0269
lwrist 7.13379
lhand 8.51718 13.7595
lfingers 7.12502
lthumb 33.7186 40.6053
rfemur -31.6573 -10.7191 21.3692
rtibia 47.5161
rfoot -10.4968 1.77902
rtoes -2.19261
lfemur -30.8868 19.9507 -8.76259
ltibia 85.8453
lfoot -11.5451 -9.87368
ltoes -4.94826
3008
root 3.91696 15.0533 -10.3131 -174.725 40.8272 185.196
lowerback 6.05148 3.24452 2.3268
upperback -5.66723 5.10168 3.0188
thorax -9.49902 2.54274 1.1694
lowerneck -6.73153 -15.3529 -11.2886
upperneck 11.237 -21.4621 15.9074
head 7.53903 -9.69209 4.60695
rclavicle -8.3092e-014 1.98785e-014
rhumerus 10.8072 8.32203 -44.7038
rradius 31.1656
rwrist -42.1086
rhand -9.35925 -8.82754
rfingers 7.12502
rthumb 16.6006 -38.1375
lclavicle -8.3092e-014 1.98785e-014
lhumerus -10.7877 -17.7138 -0.48322
lradius 49.4961
lwrist 7.03402
lhand 8.6082 13.7415
lfingers 7.12502
lthumb 33.8051 40.5683
rfemur -31.7954 -10.9372 21.9837
rtibia 48.3254
rfoot -11.344 1.82922
rtoes -1.56878
lfemur -30.9937 20.6834 -9.39468
ltibia 86.2338
lfoot -12.195 -9.74469
ltoes -6.5289
3009
root 4.04834 15.0223 -10.2794 -174.789 40.8015 185.214
lowerback 5.97318 3.31728 2.05594
upperback -5.70544 5.15208 2.88009
thorax -9.50402 2.57764 1.16935
lowerneck -6.63664 -15.245 -11.0662
upperneck 10.9647 -21.2956 15.8253
head 7.37623 -9.6297 4.59068
rclavicle -6.36111e-014 -2.14687e-014
rhumerus 11.065 8.3283 -44.3431
rradius 31.6672
rwrist -43.1379
rhand -9.36935 -9.78581
rfingers 7.12502
rthumb 16.5909 -39.0966
lclavicle -6.36111e-014 -2.14687e-014
lhumerus -10.9013 -17.4538 -0.691515
lradius 48.9561
lwrist 6.90421
lhand 8.68259 13.7482
lfingers 7.12502
lthumb 33.8758 40.5595
rfemur -31.8958 -11.15 22.4779
rtibia 49.1395
rfoot -12.005 1.89286
rtoes -1.24685
lfemur -30.9598 21.2768 -10.1467
ltibia 86.3578
lfoot -12.7541 -9.38179
ltoes -7.96932
3010
root 4.17714 14.9972 -10.2463 -174.91 40.7308 185.19
lowerback 5.88673 3.36234 1.74428
upperback -5.72005 5.15955 2.74865
thorax -9.48211 2.59469 1.20693
lowerneck -6.55808 -15.1413 -10.8822
upperneck 10.6989 -21.1344 15.7599
head 7.22644 -9.56911 4.58205
rclavicle -2.93704e-014 4.77083e-015
rhumerus 11.4022 8.32561 -43.9638
rradius 32.1924
rwrist -44.19
rhand -9.37891 -10.7738
rfingers 7.12502
rthumb 16.5817 -40.0854
lclavicle -2.93704e-014 4.77083e-015
lhumerus -11.0379 -17.2174 -0.845394
lradius 48.4048
lwrist 6.75767
lhand 8.74516 13.7991
lfingers 7.12502
lthumb 33.9352 40.5972
rfemur -31.9762 -11.366 22.9074
rtibia 49.9487
rfoot -12.5009 1.98857
rtoes -1.12629
lfemur -30.8202 21.7313 -10.9493
ltibia 86.2427
lfoot -13.2262 -8.83741
ltoes -9.15166
3011
root 4.30281 14.9774 -10.2141 -175.046 40.6112 185.149
lowerback 5.76886 3.3799 1.42383
upperback -5.71378 5.12861 2.62909
thorax -9.42001 2.59457 1.27009
lowerneck -6.50568 -15.0499 -10.7542
upperneck 10.4504 -20.989 15.7106
head 7.09779 -9.51525 4.5806
rclavicle -1.59028e-014 5.1684e-015
rhumerus 11.8244 8.33296 -43.5431
rradius 32.7531
rwrist -45.328
rhand -9.40387 -11.7685
rfingers 7.12502
rthumb 16.5576 -41.0821
lclavicle -1.59028e-014 5.1684e-015
lhumerus -11.1896 -17.0046 -0.944483
lradius 47.8277
lwrist 6.58739
lhand 8.76994 13.8592
lfingers 7.12502
lthumb 33.9588 40.6521
rfemur -32.044 -11.5733 23.2889
rtibia 50.732
rfoot -12.8637 2.1293
rtoes -0.978973
lfemur -30.6046 22.0515 -11.7775
ltibia 85.9085
lfoot -13.6374 -8.13037
ltoes -10.1431
3012
root 4.42515 14.9624 -10.1832 -175.17 40.448 185.117
lowerback 5.60638 3.37439 1.12059
upperback -5.68814 5.06895 2.52477
thorax -9.30959 2.58048 1.34734
lowerneck -6.46754 -14.9695 -10.6818
upperneck 10.2011 -20.8564 15.6776
head 6.98164 -9.46826 4.58813
rclavicle 1.07344e-014 -5.56597e-015
rhumerus 12.3303 8.35889 -43.0588
rradius 33.359
rwrist -46.5782
rhand -9.43283 -12.7886
rfingers 7.12502
rthumb 16.5298 -42.1045
lclavicle 1.07344e-014 -5.56597e-015
lhumerus -11.3429 -16.8082 -0.99189
lradius 47.2154
lwrist 6.36885
lhand 8.77107 13.9283
lfingers 7.12502
lthumb 33.9598 40.7209
rfemur -32.0989 -11.7825 23.6554
rtibia 51.465
rfoot -13.1309 2.28962
rtoes -0.849494
lfemur -30.3252 22.2488 -12.5987
ltibia 85.3713
lfoot -13.9904 -7.29837
ltoes -10.8989
3013
root 4.54411 14.9515 -10.1532 -175.28 40.2501 185.101
lowerback 5.41016 3.34843 0.841803
upperback -5.65339 4.98592 2.43105
thorax -9.16747 2.55406 1.42776
lowerneck -6.42114 -14.9004 -10.6506
upperneck 9.95442 -20.7379 15.6477
head 6.872 -9.42991 4.60021
rclavicle -2.57675e-014 3.33958e-014
rhumerus 12.8958 8.43612 -42.4985
rradius 34.0408
rwrist -47.9928
rhand -9.49326 -13.8829
rfingers 7.12502
rthumb 16.4716 -43.2037
lclavicle -2.57675e-014 3.33958e-014
lhumerus -11.4875 -16.6441 -1.00657
lradius 46.5637
lwrist 6.07326
lhand 8.77395 14.0075
lfingers 7.12502
lthumb 33.9626 40.7996
rfemur -32.1178 -11.9881 24.0164
rtibia 52.1196
rfoot -13.343 2.44734
rtoes -0.737057
lfemur -29.9766 22.3406 -13.3913
ltibia 84.6407
lfoot -14.2842 -6.36482
ltoes -11.4868
3014
root 4.65931 14.9443 -10.124 -175.372 40.0303 185.121
lowerback 5.20286 3.30657 0.605609
upperback -5.61307 4.88834 2.34844
thorax -9.00961 2.51816 1.49889
lowerneck -6.36214 -14.8404 -10.6538
upperneck 9.71257 -20.6307 15.617
head 6.76716 -9.39887 4.61557
rclavicle -3.13086e-015 1.82882e-014
rhumerus 13.5121 8.56792 -41.8481
rradius 34.8163
rwrist -49.5889
rhand -9.61185 -15.0911
rfingers 7.12502
rthumb 16.3574 -44.4213
lclavicle -3.13086e-015 1.82882e-014
lhumerus -11.6147 -16.517 -1.00384
lradius 45.8664
lwrist 5.69734
lhand 8.80012 14.096
lfingers 7.12502
lthumb 33.9874 40.8826
rfemur -32.0804 -12.1933 24.3952
rtibia 52.6734
rfoot -13.5135 2.584
rtoes -0.677044
lfemur -29.5489 22.3514 -14.1218
ltibia 83.7249
lfoot -14.5077 -5.3478
ltoes -11.8755
3015
root 4.77044 14.9408 -10.0957 -175.46 39.793 185.182
lowerback 5.01209 3.25254 0.428289
upperback -5.56899 4.78229 2.27197
thorax -8.85266 2.47415 1.5437
lowerneck -6.29274 -14.7922 -10.681
upperneck 9.48795 -20.5397 15.5728
head 6.66936 -9.37707 4.628
rclavicle -2.97432e-014 -1.20265e-014
rhumerus 14.1654 8.74199 -41.1012
rradius 35.7047
rwrist -51.366
rhand -9.84391 -16.4702
rfingers 7.12502
rthumb 16.134 -45.8187
lclavicle -2.97432e-014 -1.20265e-014
lhumerus -11.7148 -16.4315 -0.999424
lradius 45.1283
lwrist 5.25149
lhand 8.84272 14.1758
lfingers 7.12502
lthumb 34.0279 40.9534
rfemur -31.9599 -12.4068 24.7948
rtibia 53.113
rfoot -13.6473 2.69709
rtoes -0.663068
lfemur -29.0162 22.2854 -14.772
ltibia 82.6231
lfoot -14.6416 -4.27001
ltoes -12.0257
3016
root 4.87756 14.9411 -10.0681 -175.548 39.5477 185.295
lowerback 4.86557 3.19258 0.316226
upperback -5.52552 4.67687 2.20232
thorax -8.71771 2.42606 1.55633
lowerneck -6.2314 -14.7561 -10.7146
upperneck 9.29781 -20.4649 15.4923
head 6.58256 -9.36363 4.62662
rclavicle -8.35393e-014 -8.15017e-015
rhumerus 14.8435 8.93324 -40.2522
rradius 36.7237
rwrist -53.3207
rhand -10.2465 -18.0568
rfingers 7.12502
rthumb 15.7462 -47.4363
lclavicle -8.35393e-014 -8.15017e-015
lhumerus -11.7748 -16.3794 -0.992567
lradius 44.3471
lwrist 4.75219
lhand 8.9101 14.2843
lfingers 7.12502
lthumb 34.0919 41.0476
rfemur -31.7488 -12.626 25.2231
rtibia 53.4429
rfoot -13.7253 2.79282
rtoes -0.639814
lfemur -28.3639 22.1601 -15.3217
ltibia 81.3343
lfoot -14.682 -3.15197
ltoes -11.9583
